HIERARCHY
ROOT root
{
	OFFSET	0	13.1	24.9
	CHANNELS 6  Xposition Yposition Zposition Xrotation Yrotation Zrotation
	JOINT spine_1
	{
		OFFSET	0	9.99999	0
		CHANNELS 3  Xrotation Yrotation Zrotation
		JOINT spine_2
		{
			OFFSET	0	112	-10
			CHANNELS 3  Xrotation Yrotation Zrotation
			JOINT spine_3
			{
				OFFSET	0	206.5	19.3
				CHANNELS 3  Xrotation Yrotation Zrotation
				JOINT spine_4
				{
					OFFSET	0	110.4	14.6
					CHANNELS 3  Xrotation Yrotation Zrotation
					JOINT neck_1
					{
						OFFSET	0	71.8	-50.3
						CHANNELS 3  Xrotation Yrotation Zrotation
						JOINT neck_2
						{
							OFFSET	0	86.2	-25.8
							CHANNELS 3  Xrotation Yrotation Zrotation
							JOINT head_ee
							{
								OFFSET	0	179.8	-8.7
								CHANNELS 3  Xrotation Yrotation Zrotation
								End Site
								{
									OFFSET	1	0	0
								}
							}
						}
					}
					JOINT left_clavicle
					{
						OFFSET	-43.2	22.4	-70.8
						CHANNELS 3  Xrotation Yrotation Zrotation
						JOINT left_shoulder
						{
							OFFSET	-93.9	-5.79999	48.7
							CHANNELS 3  Xrotation Yrotation Zrotation
							JOINT left_elbow
							{
								OFFSET	-291.4	-30.8	15.2
								CHANNELS 3  Xrotation Yrotation Zrotation
								JOINT left_lowarm_twist
								{
									OFFSET	-110.7	-3.89999	13.6
									CHANNELS 3  Xrotation Yrotation Zrotation
									JOINT left_hand
									{
										OFFSET	-110.7	-3.89999	13.6
										CHANNELS 3  Xrotation Yrotation Zrotation
										JOINT left_ee
										{
											OFFSET	-80.8	-5.10001	12.1
											CHANNELS 3  Xrotation Yrotation Zrotation
											End Site
											{
												OFFSET	1	0	0
											}
										}
									}
								}
							}
						}
					}
					JOINT right_clavicle
					{
						OFFSET	43.2	22.4	-70.8
						CHANNELS 3  Xrotation Yrotation Zrotation
						JOINT right_shoulder
						{
							OFFSET	93.9	-5.79999	48.7
							CHANNELS 3  Xrotation Yrotation Zrotation
							JOINT right_elbow
							{
								OFFSET	291.4	-30.8	15.2
								CHANNELS 3  Xrotation Yrotation Zrotation
								JOINT right_lowarm_twist
								{
									OFFSET	110.7	-3.89999	13.6
									CHANNELS 3  Xrotation Yrotation Zrotation
									JOINT right_hand
									{
										OFFSET	110.7	-3.89999	13.6
										CHANNELS 3  Xrotation Yrotation Zrotation
										JOINT right_ee
										{
											OFFSET	80.8	-5.10001	12.1
											CHANNELS 3  Xrotation Yrotation Zrotation
											End Site
											{
												OFFSET	1	0	0
											}
										}
									}
								}
							}
						}
					}
				}
			}
		}
	}
	JOINT left_hip
	{
		OFFSET	-82.8	-127.5	0.300001
		CHANNELS 3  Xrotation Yrotation Zrotation
		JOINT left_knee
		{
			OFFSET	-28.2	-396.7	2.2
			CHANNELS 3  Xrotation Yrotation Zrotation
			JOINT left_ankle
			{
				OFFSET	-11.7	-411.3	35.4
				CHANNELS 3  Xrotation Yrotation Zrotation
				JOINT left_toes
				{
					OFFSET	0	-60	-88.6
					CHANNELS 3  Xrotation Yrotation Zrotation
					JOINT left_foot_ee
					{
						OFFSET	-22.5	-16.5	-42.2
						CHANNELS 3  Xrotation Yrotation Zrotation
						End Site
						{
							OFFSET	1	0	0
						}
					}
				}
			}
		}
	}
	JOINT right_hip
	{
		OFFSET	82.8	-127.5	0.300001
		CHANNELS 3  Xrotation Yrotation Zrotation
		JOINT right_knee
		{
			OFFSET	28.2	-396.7	2.2
			CHANNELS 3  Xrotation Yrotation Zrotation
			JOINT right_ankle
			{
				OFFSET	11.7	-411.3	35.4
				CHANNELS 3  Xrotation Yrotation Zrotation
				JOINT right_toes
				{
					OFFSET	0	-60	-88.6
					CHANNELS 3  Xrotation Yrotation Zrotation
					JOINT right_foot_ee
					{
						OFFSET	22.5	-16.5	-42.2
						CHANNELS 3  Xrotation Yrotation Zrotation
						End Site
						{
							OFFSET	1	0	0
						}
					}
				}
			}
		}
	}
}
MOTION
Frames: 13
Frame Time: 0.02
1301.15 676.928 -1582.11 -10.3528 77.6484 17.7133 1.8086 -0.180444 -2.01634 1.81087 -0.0518007 -2.02373 1.81269 0.311695 -2.00026 1.80711 -0.00805323 -2.02438 -10.9986 -6.32536 6.15455 -10.9902 -16.0042 4.28415 -0.0 0.0 -0.0 11.5821 -26.0987 22.4183 -14.1042 -30.0068 68.1827 0.488729 -13.6097 0.0583198 34.9293 -0.112119 -4.39225 -6.94608 -9.31809 -61.8958 -0.0 0.0 -0.0 3.56513 -11.9595 -7.4051 36.9316 -34.9994 -72.8764 0.712967 19.4524 -0.122207 85.2028 4.45082 8.87544 -3.99563 -28.9635 10.2338 0.0 0.0 0.0 33.0234 -20.4463 -4.2234 -12.078 0.305911 1.82489 10.3081 23.7089 -1.52133 -28.2782 0.0 0.0 -0.0 0.0 -0.0 1.72976 13.3138 -14.8228 -15.4319 -0.322068 -2.33915 40.5455 -23.6888 5.17839 40.1585 -0.0 -0.0 0.0 0.0 0.0 
1279.18 676.917 -1575.52 -5.45383 76.9263 12.2657 1.68723 -0.06878 -1.97408 1.6894 0.0569503 -1.97446 1.68744 0.414135 -1.93139 1.68225 0.103972 -1.97254 -11.4441 -8.48985 5.33131 -11.5399 -19.5332 2.80664 -0.0 0.0 -0.0 11.6435 -26.4427 22.5188 -14.2402 -28.7758 69.0499 0.510002 -14.1787 0.0634283 35.6848 -0.144047 -4.4834 -6.65757 -11.0105 -59.217 -0.0 0.0 -0.0 2.97316 -13.2567 -6.46278 34.2056 -37.0318 -74.6471 0.81495 21.9839 -0.158294 85.3982 4.47426 8.88433 -3.73743 -29.4967 8.49604 0.0 0.0 0.0 33.7497 -20.7416 -3.72827 -16.0407 0.321772 2.43255 5.56064 15.3233 -0.808067 -26.7064 0.0 0.0 -0.0 0.0 -0.0 0.508044 12.1923 -13.3285 -17.7766 -0.315478 -2.69881 37.812 -25.4539 4.96692 40.2189 -0.0 -0.0 0.0 0.0 0.0 
1254.04 677.883 -1576.0 -3.50861 77.0598 10.2162 1.6443 0.0519803 -2.05765 1.64664 0.182781 -2.05018 1.64005 0.553338 -1.98256 1.63464 0.233354 -2.04504 -10.6479 -9.73228 6.31825 -10.7215 -22.5482 3.57756 -0.0 0.0 -0.0 12.6268 -26.7046 24.7335 -16.8393 -27.0921 65.848 0.544057 -15.0836 0.0720306 35.5498 -0.138254 -4.46715 -6.39142 -12.9236 -57.0885 -0.0 0.0 -0.0 2.04582 -15.2523 -5.05874 29.5092 -40.0622 -77.5479 1.08273 28.2063 -0.272034 85.3279 4.46583 8.88114 -3.77281 -29.3312 8.78955 0.0 0.0 0.0 32.9314 -20.3381 -3.60376 -19.3963 0.302333 2.94697 10.3345 12.0484 -1.47117 -25.6175 0.0 0.0 -0.0 0.0 -0.0 0.0367205 12.6105 -13.1494 -21.4031 -0.276325 -3.25378 34.7896 -27.0525 4.70139 40.3233 -0.0 -0.0 0.0 0.0 0.0 
1221.93 684.976 -1578.3 -0.46045 77.5645 7.63984 1.60227 -0.198983 -2.17624 1.6049 -0.0601337 -2.18448 1.60734 0.340065 -2.1587 1.60083 -0.00504463 -2.1853 -9.96326 -9.79027 8.519 -9.91098 -24.1553 5.88511 -0.0 0.0 -0.0 12.3263 -27.4393 23.9551 -16.8864 -25.4014 64.6495 0.599784 -16.5476 0.0872199 35.9777 -0.156748 -4.51863 -6.23732 -12.8363 -55.2426 -0.0 0.0 -0.0 0.873261 -18.0763 -3.44324 26.6457 -40.2654 -73.3834 0.905282 24.1535 -0.193696 83.1692 4.20868 8.77823 -4.19627 -27.1315 12.534 0.0 0.0 0.0 30.9925 -19.7766 -3.61664 -23.3946 0.239908 3.55719 16.7273 10.9501 -2.32151 -22.9743 0.0 0.0 -0.0 0.0 -0.0 1.43261 11.7138 -13.359 -26.9384 -0.149102 -4.09338 34.7062 -27.1782 4.69637 40.2758 -0.0 -0.0 0.0 0.0 0.0 
1201.12 688.505 -1579.51 -0.412438 78.2029 7.69739 1.573 -0.156567 -2.10054 1.57545 -0.0226174 -2.10625 1.57642 0.363786 -2.07473 1.57041 0.0316314 -2.10613 -6.75572 -9.37681 9.26957 -6.41589 -24.0846 7.50876 -0.0 0.0 -0.0 12.4408 -27.5204 24.2067 -17.6147 -24.2051 64.8518 0.653341 -17.934 0.103095 35.7503 -0.146872 -4.49129 -6.27065 -13.4253 -55.9485 -0.0 0.0 -0.0 1.35127 -18.2643 -4.18492 22.5525 -39.6746 -68.7869 0.821644 22.1471 -0.160809 85.1779 4.44783 8.8743 -3.41199 -28.4322 7.37118 0.0 0.0 0.0 30.3065 -19.5307 -3.66119 -25.0411 0.201847 3.80699 18.0024 7.32536 -2.48007 -22.2768 0.0 0.0 -0.0 0.0 -0.0 3.00462 11.7795 -13.4941 -32.124 0.0431319 -4.86571 34.927 -26.91 4.71169 39.2785 -0.0 -0.0 0.0 0.0 0.0 
1177.05 690.041 -1579.48 2.24671 79.485 5.45739 1.48576 -0.274854 -2.34399 1.48881 -0.125185 -2.35672 1.49426 0.31218 -2.33931 1.48663 -0.0610825 -2.35925 -7.33944 -11.0378 8.7845 -7.0699 -26.7886 6.52484 -0.0 0.0 -0.0 11.9567 -26.5861 23.2148 -17.5474 -25.5696 67.157 0.760638 -20.6463 0.138551 35.902 -0.153447 -4.50952 -6.26956 -13.892 -56.1877 -0.0 0.0 -0.0 1.0746 -18.0996 -3.75145 21.2624 -39.4291 -69.2916 0.814687 21.9775 -0.158196 85.0912 4.43745 8.87033 -3.42444 -28.2776 7.53028 0.0 0.0 0.0 29.7461 -19.4655 -3.51549 -27.4102 0.134515 4.16431 20.4585 6.6275 -2.78746 -21.826 0.0 0.0 -0.0 0.0 -0.0 3.27748 10.0156 -13.1336 -34.6923 0.164068 -5.24117 40.1281 -23.7863 5.14198 39.4477 -0.0 -0.0 0.0 0.0 0.0 
1156.63 694.937 -1581.49 4.88318 80.0806 3.18444 1.41649 -0.245232 -2.33529 1.41952 -0.0961756 -2.34616 1.4238 0.341621 -2.32316 1.41626 -0.0294611 -2.34794 -7.25833 -10.7444 9.49956 -6.93537 -26.7555 7.33961 -0.0 0.0 -0.0 11.9742 -25.4002 23.3886 -17.2561 -25.7292 67.3258 0.784937 -21.2477 0.147237 35.6115 -0.140895 -4.47457 -6.26022 -13.9846 -56.1287 -0.0 0.0 -0.0 0.958443 -19.7055 -3.7134 20.0055 -40.6593 -67.6306 0.795252 21.5016 -0.150997 85.7386 4.51517 8.89961 -3.47577 -28.631 7.60118 0.0 0.0 0.0 29.1529 -19.1637 -3.38625 -28.6087 0.0948363 4.34396 21.1285 6.7518 -2.86964 -21.6964 0.0 0.0 -0.0 0.0 -0.0 3.11641 9.94281 -13.0205 -35.5327 0.20729 -5.36283 42.6935 -22.8541 5.34902 40.1347 -0.0 -0.0 0.0 0.0 0.0 
1147.33 697.386 -1585.91 2.91776 80.7489 5.70486 1.26024 -0.270412 -2.31767 1.26322 -0.122425 -2.33017 1.26867 0.319096 -2.31148 1.26122 -0.0498603 -2.33285 -9.12079 -10.7996 9.70484 -8.96164 -26.9005 7.0275 -0.0 0.0 -0.0 11.9458 -25.8972 23.2688 -16.8249 -25.865 67.1515 0.795154 -21.4992 0.150961 35.536 -0.137661 -4.46548 -6.25459 -14.0365 -56.0912 -0.0 0.0 -0.0 0.525756 -20.7904 -3.17979 18.6748 -39.9167 -70.1191 0.759841 20.6265 -0.13827 85.2175 4.45259 8.87611 -3.37426 -28.5414 7.10146 0.0 0.0 0.0 28.581 -19.4206 -4.08797 -28.3228 0.104643 4.30118 21.7903 6.58766 -2.95021 -21.2833 0.0 0.0 -0.0 0.0 -0.0 3.2059 9.78886 -13.4202 -34.2515 0.142114 -5.17711 40.6542 -22.9569 5.16674 39.1428 -0.0 -0.0 0.0 0.0 0.0 
1130.49 699.101 -1584.62 0.557971 81.0192 8.05036 1.25975 -0.353805 -2.34174 1.26278 -0.204119 -2.35949 1.27173 0.244207 -2.35568 1.26401 -0.130787 -2.36469 -6.64448 -11.1784 8.82417 -6.30539 -27.0974 6.72661 -0.0 0.0 -0.0 12.0881 -25.3497 23.6545 -16.4846 -26.7378 66.6652 0.81476 -21.9793 0.158223 35.1859 -0.122828 -4.42325 -6.00432 -14.0308 -53.2849 -0.0 0.0 -0.0 0.242182 -21.0878 -2.80096 17.676 -41.3616 -70.0939 0.716297 19.5364 -0.123318 85.179 4.44797 8.87435 -3.41764 -27.9433 7.69005 0.0 0.0 0.0 28.3416 -19.0943 -3.90297 -28.5175 0.097988 4.33032 22.2015 6.41775 -2.99997 -21.3827 0.0 0.0 -0.0 0.0 -0.0 2.72109 9.74072 -12.6061 -32.7204 0.0697074 -4.95335 41.5124 -22.4518 5.23105 40.0553 -0.0 -0.0 0.0 0.0 0.0 
1119.16 696.49 -1585.59 0.993478 80.9371 7.42456 1.4012 -0.273657 -2.24123 1.40399 -0.130524 -2.25409 1.40947 0.291276 -2.23901 1.40248 -0.0658955 -2.2569 -6.29329 -10.7171 9.92535 -5.84692 -27.0529 8.05059 -0.0 0.0 -0.0 12.1195 -21.6019 24.0855 -15.4056 -26.3851 65.4322 0.836961 -22.519 0.166629 35.2544 -0.125711 -4.43153 -6.21275 -14.2721 -55.7334 -0.0 0.0 -0.0 0.323948 -20.6173 -2.87045 16.1851 -42.047 -69.4634 0.667451 18.2958 -0.107482 85.0708 4.43501 8.86939 -3.54932 -28.7053 7.95729 0.0 0.0 0.0 28.2802 -18.8732 -3.54914 -30.0257 0.0430804 4.55527 23.289 6.09565 -3.13021 -21.145 0.0 0.0 -0.0 0.0 -0.0 2.08266 9.66246 -12.5635 -32.2077 0.0468061 -4.87802 42.7072 -23.7225 5.37744 40.2573 -0.0 -0.0 0.0 0.0 0.0 
1102.58 701.761 -1587.68 -1.51997 81.0507 9.93108 1.41985 -0.435325 -2.21603 1.42253 -0.293467 -2.23923 1.43445 0.127305 -2.25478 1.42742 -0.230301 -2.2466 -5.77321 -10.7746 10.016 -5.26709 -27.2456 8.28071 -0.0 0.0 -0.0 11.9376 -20.2192 23.7751 -14.0836 -26.9996 63.6494 0.870135 -23.3177 0.179548 34.9361 -0.112399 -4.39307 -6.19879 -14.4011 -55.6409 -0.0 0.0 -0.0 0.098591 -21.1355 -2.59984 13.4807 -42.6187 -71.2057 0.597892 16.4983 -0.0866819 84.3137 4.34453 8.83399 -3.55585 -28.7093 7.99044 0.0 0.0 0.0 27.9534 -18.7649 -3.56469 -30.3561 0.0302608 4.60435 24.2727 5.6699 -3.24652 -20.8027 0.0 0.0 -0.0 0.0 -0.0 1.56869 10.3023 -12.5305 -29.6636 -0.0568037 -4.50139 41.6686 -24.3766 5.30451 40.0383 -0.0 -0.0 0.0 0.0 0.0 
1088.59 707.623 -1589.91 -4.2968 80.4921 12.9255 1.40155 -0.501079 -2.2194 1.40422 -0.358874 -2.24677 1.4188 0.065006 -2.27431 1.41171 -0.294901 -2.25606 -6.00565 -10.7199 10.0628 -5.52006 -27.17 8.27373 -0.0 0.0 -0.0 11.955 -20.1657 23.8189 -12.1942 -27.7833 60.5462 0.896288 -23.9407 0.190031 35.1373 -0.12079 -4.41739 -6.12928 -14.6218 -54.9668 -0.0 0.0 -0.0 -0.210769 -21.136 -2.15595 13.1049 -42.667 -71.2363 0.584963 16.1603 -0.0830467 84.0254 4.31022 8.82021 -3.59147 -28.8285 8.11256 0.0 0.0 0.0 27.7548 -18.6979 -3.63749 -30.6633 0.0180904 4.64992 25.9661 5.0278 -3.44308 -20.3166 0.0 0.0 -0.0 0.0 -0.0 2.44352 10.2385 -12.3381 -27.8433 -0.12061 -4.22933 41.1056 -24.8523 5.26793 39.8877 -0.0 -0.0 0.0 0.0 0.0 
1075.64 705.49 -1591.05 -3.01462 80.4709 11.9947 1.37901 -0.619546 -2.26658 1.38175 -0.474102 -2.30138 1.40142 -0.0374429 -2.34938 1.39395 -0.407914 -2.31402 -6.31364 -10.5506 10.2424 -5.8473 -26.9748 8.40513 -0.0 0.0 -0.0 12.0409 -20.2715 24.0084 -10.688 -28.556 57.8661 0.895575 -23.9238 0.189742 35.4192 -0.132685 -4.4514 -6.05769 -14.6847 -54.2013 -0.0 0.0 -0.0 -0.562967 -21.5795 -1.70679 12.4967 -42.7754 -71.5851 0.55172 15.2861 -0.0740379 84.0436 4.31237 8.82108 -3.57562 -28.7888 8.05026 0.0 0.0 0.0 27.1527 -18.4544 -3.92712 -30.9132 0.00800669 4.68694 27.7848 3.90668 -3.65005 -19.8539 0.0 0.0 -0.0 0.0 -0.0 2.58371 10.2387 -12.4235 -27.742 -0.123907 -4.21413 40.7223 -25.2679 5.24572 39.8797 -0.0 -0.0 0.0 0.0 0.0 
